<?xml version="1.0" encoding="UTF-8" standalone="no"?>
<svg width="74px" height="18px" viewBox="0 0 74 18" version="1.1" xmlns="http://www.w3.org/2000/svg" xmlns:xlink="http://www.w3.org/1999/xlink">
    <!-- Generator: Sketch 45.2 (43514) - http://www.bohemiancoding.com/sketch -->
    <title>TechGig</title>
    <desc>Created with Sketch.</desc>
    <defs></defs>
    <g id="Symbols" stroke="none" stroke-width="1" fill="none" fill-rule="evenodd">
        <g id="Navigation_white" transform="translate(-40.000000, -19.000000)">
            <g id="TechGig" transform="translate(40.000000, 19.000000)">
                <polyline id="Fill-1" fill="#1A497D" points="3.43830146 2.68236 0.0940291734 2.68236 0.0940291734 0.45168 11.0637796 0.45168 11.0637796 2.66724 7.61876175 2.66724 7.61876175 17.46048 3.43830146 17.46048 3.43830146 2.68236"></polyline>
                <polyline id="Fill-2" fill="#1A497D" points="12.2808817 0.49788 12.2808817 17.29212 21.2832156 17.29212 21.2832156 15.04044 16.313342 15.04044 16.313342 9.31716 21.095637 9.31716 21.095637 7.25328 16.313342 7.25328 16.313342 2.65584 21.2832156 2.65584 21.2832156 0.49812 12.2808817 0.49788"></polyline>
                <polyline id="Fill-3" fill="#1A497D" points="34.5051086 0.49788 34.5051086 17.38608 38.537329 17.38608 38.537329 9.22344 40.7821556 9.22344 40.7821556 17.38608 44.9138023 17.38608 44.9138023 0.4926 40.8121394 0.4926 40.8121394 6.94236 38.537329 6.97164 38.537329 0.50328 34.5051086 0.49788"></polyline>
                <path d="M29.0906353,6.77436 L33.1617147,6.77436 L33.1617147,4.04508 C33.1617147,4.04508 33.6211864,0.61056 29.5498671,0.08928 C27.4060259,-0.05928 23.1955818,-0.1866 22.66259,2.60376 L22.723637,15.20748 C22.723637,15.20748 22.7239968,17.35368 26.1828071,17.75256 L29.6109141,17.78304 C29.6109141,17.78304 32.9165673,17.69112 33.1922982,14.86992 L33.1617147,10.8222 L29.0906353,10.76076 L29.0906353,14.97552 C29.0906353,15.86268 26.9291637,15.94164 26.7948363,14.99268 L26.7948363,2.69604 C26.7948363,2.69604 26.641799,1.86828 28.1415883,1.95996 C28.1415883,1.95996 28.9197277,1.92864 29.0906353,2.81844 L29.0906353,6.77436 Z" id="Fill-4" fill="#1A497D"></path>
                <polygon id="Fill-5" fill="#D7263D" points="57.9375624 17.43072 62.0864797 17.43072 62.0864797 0.47844 57.9375624 0.47844"></polygon>
                <path d="M56.7311345,6.82188 L56.7311345,2.91828 C56.7311345,2.91828 56.4977407,0.6492 53.300389,0.21552 C53.300389,0.21552 52.2011831,-0.05124 49.7700972,0.14892 C47.3386515,0.34896 46.4396175,1.98396 46.2730276,2.65128 C46.1061977,3.31836 46.2730276,15.13008 46.2730276,15.13008 C46.2730276,15.13008 46.3728136,17.0988 49.2371053,17.79948 C52.101517,18.50016 54.1666807,16.63176 54.1666807,16.63176 C54.1666807,16.63176 54.5329627,16.93212 54.5329627,17.33244 L56.7311345,17.46588 L56.7311345,8.99088 L50.9024052,8.99088 L50.9024052,11.09292 L52.6345089,11.09292 L52.6345089,14.9634 C52.6345089,14.9634 52.6674911,15.83112 51.3353712,15.83112 C50.0033712,15.83112 50.3363112,14.4294 50.3363112,14.4294 L50.3363112,2.85132 C50.3363112,2.85132 50.6026872,2.05056 51.6352091,2.15064 C52.667731,2.25096 52.7010729,2.985 52.7010729,2.985 L52.7010729,6.85548 L56.7311345,6.82188" id="Fill-6" fill="#D7263D"></path>
                <path d="M73.8970956,6.8244 L73.8970956,2.92056 C73.8970956,2.92056 73.6635818,0.65172 70.46647,0.2178 C70.46647,0.2178 69.3672642,-0.04896 66.9358185,0.15132 C64.5047326,0.35136 63.6056985,1.98624 63.4388687,2.65356 C63.2721588,3.32088 63.4388687,15.1326 63.4388687,15.1326 C63.4388687,15.1326 63.5385348,17.10132 66.4031864,17.802 C69.2675981,18.50244 71.3324019,16.63428 71.3324019,16.63428 C71.3324019,16.63428 71.698684,16.93464 71.698684,17.33472 L73.8970956,17.4684 L73.8970956,8.9934 L68.0683663,8.9934 L68.0683663,11.0952 L69.8002301,11.0952 L69.8002301,14.96568 C69.8002301,14.96568 69.8335721,15.8334 68.5013323,15.8334 C67.1690924,15.8334 67.5023922,14.43192 67.5023922,14.43192 L67.5023922,2.85384 C67.5023922,2.85384 67.7684084,2.05284 68.8010502,2.15316 C69.8335721,2.25324 69.8669141,2.98728 69.8669141,2.98728 L69.8669141,6.858 L73.8970956,6.8244" id="Fill-7" fill="#D7263D"></path>
            </g>
        </g>
    </g>
</svg>